<mxfile host="app.diagrams.net" agent="Mozilla/5.0 (Windows NT 10.0; Win64; x64) AppleWebKit/537.36 (KHTML, like Gecko) Chrome/130.0.0.0 Safari/537.36 Edg/130.0.0.0" version="24.8.4">
  <diagram id="C5RBs43oDa-KdzZeNtuy" name="Page-1">
    <mxGraphModel dx="1426" dy="747" grid="1" gridSize="10" guides="1" tooltips="1" connect="1" arrows="1" fold="1" page="1" pageScale="1" pageWidth="827" pageHeight="1169" math="0" shadow="0">
      <root>
        <mxCell id="WIyWlLk6GJQsqaUBKTNV-0" />
        <mxCell id="WIyWlLk6GJQsqaUBKTNV-1" parent="WIyWlLk6GJQsqaUBKTNV-0" />
        <mxCell id="-5r840bbSFOdMsj15txN-3" value="" style="edgeStyle=orthogonalEdgeStyle;rounded=0;orthogonalLoop=1;jettySize=auto;html=1;" parent="WIyWlLk6GJQsqaUBKTNV-1" source="-5r840bbSFOdMsj15txN-1" target="-5r840bbSFOdMsj15txN-2" edge="1">
          <mxGeometry relative="1" as="geometry" />
        </mxCell>
        <mxCell id="-5r840bbSFOdMsj15txN-1" value="Inicio" style="ellipse;whiteSpace=wrap;html=1;aspect=fixed;" parent="WIyWlLk6GJQsqaUBKTNV-1" vertex="1">
          <mxGeometry x="374" y="40" width="80" height="80" as="geometry" />
        </mxCell>
        <mxCell id="-5r840bbSFOdMsj15txN-5" value="" style="edgeStyle=orthogonalEdgeStyle;rounded=0;orthogonalLoop=1;jettySize=auto;html=1;entryX=0.5;entryY=0;entryDx=0;entryDy=0;" parent="WIyWlLk6GJQsqaUBKTNV-1" source="-5r840bbSFOdMsj15txN-2" target="nFJM4d2BoTqjhlR2B_FI-0" edge="1">
          <mxGeometry relative="1" as="geometry">
            <mxPoint x="414" y="290" as="targetPoint" />
          </mxGeometry>
        </mxCell>
        <mxCell id="-5r840bbSFOdMsj15txN-2" value="&lt;span style=&quot;background-color: transparent; color: rgb(26, 26, 26);&quot;&gt;Mostrar mensaje: &quot;Por favor, ingrese la edad del cliente: &quot;&lt;/span&gt;" style="shape=parallelogram;perimeter=parallelogramPerimeter;whiteSpace=wrap;html=1;fixedSize=1;fillColor=#ffe6cc;strokeColor=#d79b00;" parent="WIyWlLk6GJQsqaUBKTNV-1" vertex="1">
          <mxGeometry x="316" y="170" width="196" height="60" as="geometry" />
        </mxCell>
        <mxCell id="-5r840bbSFOdMsj15txN-11" style="edgeStyle=orthogonalEdgeStyle;rounded=0;orthogonalLoop=1;jettySize=auto;html=1;entryX=0.5;entryY=0;entryDx=0;entryDy=0;" parent="WIyWlLk6GJQsqaUBKTNV-1" source="-5r840bbSFOdMsj15txN-8" target="-5r840bbSFOdMsj15txN-10" edge="1">
          <mxGeometry relative="1" as="geometry" />
        </mxCell>
        <mxCell id="-5r840bbSFOdMsj15txN-8" value="&lt;span style=&quot;color: rgb(26, 26, 26); background-color: transparent;&quot;&gt;Mostrar mensaje: &quot;Lo sentimos much&lt;span class=&quot;ql-cursor&quot;&gt;﻿&lt;/span&gt;o, no se puede ingresar a la discoteca siendo menor de edad&quot;&lt;/span&gt;" style="shape=parallelogram;perimeter=parallelogramPerimeter;whiteSpace=wrap;html=1;fixedSize=1;fillColor=#ffe6cc;strokeColor=#d79b00;" parent="WIyWlLk6GJQsqaUBKTNV-1" vertex="1">
          <mxGeometry x="190" y="420" width="224" height="60" as="geometry" />
        </mxCell>
        <mxCell id="-5r840bbSFOdMsj15txN-10" value="Fin" style="ellipse;whiteSpace=wrap;html=1;aspect=fixed;" parent="WIyWlLk6GJQsqaUBKTNV-1" vertex="1">
          <mxGeometry x="374" y="540" width="80" height="80" as="geometry" />
        </mxCell>
        <mxCell id="nFJM4d2BoTqjhlR2B_FI-2" style="edgeStyle=orthogonalEdgeStyle;rounded=0;orthogonalLoop=1;jettySize=auto;html=1;entryX=0.5;entryY=0;entryDx=0;entryDy=0;" edge="1" parent="WIyWlLk6GJQsqaUBKTNV-1" source="nFJM4d2BoTqjhlR2B_FI-0" target="-5r840bbSFOdMsj15txN-8">
          <mxGeometry relative="1" as="geometry" />
        </mxCell>
        <mxCell id="nFJM4d2BoTqjhlR2B_FI-6" value="No" style="edgeLabel;html=1;align=center;verticalAlign=middle;resizable=0;points=[];" vertex="1" connectable="0" parent="nFJM4d2BoTqjhlR2B_FI-2">
          <mxGeometry x="0.0247" y="1" relative="1" as="geometry">
            <mxPoint as="offset" />
          </mxGeometry>
        </mxCell>
        <mxCell id="nFJM4d2BoTqjhlR2B_FI-3" style="edgeStyle=orthogonalEdgeStyle;rounded=0;orthogonalLoop=1;jettySize=auto;html=1;" edge="1" parent="WIyWlLk6GJQsqaUBKTNV-1" source="nFJM4d2BoTqjhlR2B_FI-0" target="nFJM4d2BoTqjhlR2B_FI-1">
          <mxGeometry relative="1" as="geometry" />
        </mxCell>
        <mxCell id="nFJM4d2BoTqjhlR2B_FI-5" value="Si" style="edgeLabel;html=1;align=center;verticalAlign=middle;resizable=0;points=[];" vertex="1" connectable="0" parent="nFJM4d2BoTqjhlR2B_FI-3">
          <mxGeometry x="-0.2022" relative="1" as="geometry">
            <mxPoint as="offset" />
          </mxGeometry>
        </mxCell>
        <mxCell id="nFJM4d2BoTqjhlR2B_FI-0" value="&lt;span style=&quot;color: rgb(26, 26, 26);&quot;&gt;Si edad &amp;gt;= 18 entonces&lt;/span&gt;" style="rhombus;whiteSpace=wrap;html=1;fillColor=#d5e8d4;strokeColor=#82b366;" vertex="1" parent="WIyWlLk6GJQsqaUBKTNV-1">
          <mxGeometry x="359" y="270" width="110" height="100" as="geometry" />
        </mxCell>
        <mxCell id="nFJM4d2BoTqjhlR2B_FI-4" style="edgeStyle=orthogonalEdgeStyle;rounded=0;orthogonalLoop=1;jettySize=auto;html=1;" edge="1" parent="WIyWlLk6GJQsqaUBKTNV-1" source="nFJM4d2BoTqjhlR2B_FI-1" target="-5r840bbSFOdMsj15txN-10">
          <mxGeometry relative="1" as="geometry" />
        </mxCell>
        <mxCell id="nFJM4d2BoTqjhlR2B_FI-1" value="&lt;span style=&quot;color: rgb(26, 26, 26); background-color: transparent;&quot;&gt;Mostrar mensaje: &quot;¡¨Puede entrar a la discoteca!&quot;&lt;/span&gt;" style="shape=parallelogram;perimeter=parallelogramPerimeter;whiteSpace=wrap;html=1;fixedSize=1;fillColor=#ffe6cc;strokeColor=#d79b00;" vertex="1" parent="WIyWlLk6GJQsqaUBKTNV-1">
          <mxGeometry x="430" y="420" width="224" height="60" as="geometry" />
        </mxCell>
      </root>
    </mxGraphModel>
  </diagram>
</mxfile>
